<svg width="171" height="32" viewBox="0 0 171 32" fill="none" xmlns="http://www.w3.org/2000/svg">
<path d="M65.7955 11.4525V8.6257C65.7955 5.60614 64.0032 4 60.9309 4H60.8669C57.7945 4 56.0023 5.60614 56.0023 8.6257V11.1634C56.0023 12.8338 56.6743 13.669 58.4666 14.6648L61.987 16.5922C63.8432 17.6201 64.5793 18.1983 64.5793 19.9972V21.7961C64.5793 24.4623 63.6512 25.7793 60.9309 25.7793C58.2105 25.7793 57.2824 24.4623 57.2824 21.7961V19.2263C57.2824 18.905 57.0904 18.7123 56.7704 18.7123H56.5143C56.1943 18.7123 56.0023 18.905 56.0023 19.2263V22.3101C56.0023 25.4902 57.5064 27 60.8989 27H60.9629C64.3553 27 65.8595 25.4581 65.8595 22.3101V19.4832C65.8595 17.9735 64.7713 16.6564 63.3632 15.8855L59.7467 13.926C57.9225 12.9302 57.2824 12.5126 57.2824 10.7137V9.13966C57.2824 6.44134 58.2105 5.22067 60.8989 5.22067C63.5872 5.22067 64.5153 6.44134 64.5153 9.13966V11.4525C64.5153 11.7737 64.7073 11.9665 65.0274 11.9665H65.2834C65.6034 11.9665 65.7955 11.7737 65.7955 11.4525Z" fill="white"/>
<path d="M77.3829 4.25698H68.4858C68.1657 4.25698 67.9737 4.44972 67.9737 4.77095V4.96369C67.9737 5.28491 68.1657 5.47765 68.4858 5.47765H72.2942V26.229C72.2942 26.5503 72.4863 26.743 72.8063 26.743H73.0623C73.3824 26.743 73.5744 26.5503 73.5744 26.229V5.47765H77.3829C77.7029 5.47765 77.8949 5.28491 77.8949 4.96369V4.77095C77.8949 4.44972 77.7029 4.25698 77.3829 4.25698Z" fill="white"/>
<path d="M91.3301 26.1327L87.5856 16.6885C89.7619 16.1746 90.786 14.6006 90.786 12.1271V9.01117C90.786 5.92737 89.1858 4.25698 85.7934 4.25698H81.1528C80.8328 4.25698 80.6408 4.44972 80.6408 4.77095V26.229C80.6408 26.5503 80.8328 26.743 81.1528 26.743H81.4089C81.7289 26.743 81.9209 26.5503 81.9209 26.229V16.8813H86.2414L89.9859 26.3254C90.0819 26.6145 90.2739 26.743 90.562 26.743H90.914C91.2981 26.743 91.4581 26.486 91.3301 26.1327ZM85.6654 15.6606H81.9209V5.47765H85.6654C88.4817 5.47765 89.5058 6.69832 89.5058 9.58938V11.5489C89.5058 14.4399 88.4817 15.6606 85.6654 15.6606Z" fill="white"/>
<path d="M94.7645 8.75419V22.2458C94.7645 25.3296 96.3647 27 99.7571 27H100.013C103.406 27 105.006 25.3296 105.006 22.2458V8.75419C105.006 5.67039 103.406 4 100.013 4H99.7571C96.3647 4 94.7645 5.63827 94.7645 8.75419ZM96.0446 21.6676V9.3324C96.0446 6.44134 97.0688 5.22067 99.8851 5.22067C102.701 5.22067 103.726 6.44134 103.726 9.3324V21.6676C103.726 24.5587 102.701 25.7793 99.8851 25.7793C97.0688 25.7793 96.0446 24.5587 96.0446 21.6676Z" fill="white"/>
<path d="M114.516 4.25698H109.875C109.555 4.25698 109.363 4.44972 109.363 4.77095V26.229C109.363 26.5503 109.555 26.743 109.875 26.743H110.131C110.451 26.743 110.643 26.5503 110.643 26.229V17.1383H114.516C117.908 17.1383 119.508 15.4679 119.508 12.3841V9.01117C119.508 5.92737 117.908 4.25698 114.516 4.25698ZM118.228 11.8059C118.228 14.6969 117.204 15.9176 114.388 15.9176H110.643V5.47765H114.388C117.204 5.47765 118.228 6.69832 118.228 9.58938V11.8059Z" fill="white"/>
<path d="M130.795 25.5223H124.426V4.77095C124.426 4.44972 124.234 4.25698 123.914 4.25698H123.658C123.338 4.25698 123.146 4.44972 123.146 4.77095V26.229C123.146 26.5503 123.338 26.743 123.658 26.743H130.795C131.115 26.743 131.307 26.5503 131.307 26.229V26.0363C131.307 25.7151 131.115 25.5223 130.795 25.5223Z" fill="white"/>
<path d="M149.085 26.229V7.3729L156.894 26.3575C156.99 26.6145 157.182 26.743 157.47 26.743H157.822C158.142 26.743 158.334 26.5503 158.334 26.229V4.77095C158.334 4.44972 158.142 4.25698 157.822 4.25698H157.566C157.246 4.25698 157.054 4.44972 157.054 4.77095V23.6271L149.309 4.64246C149.213 4.38547 149.021 4.25698 148.733 4.25698H148.317C147.997 4.25698 147.805 4.44972 147.805 4.77095V26.229C147.805 26.5503 147.997 26.743 148.317 26.743H148.573C148.893 26.743 149.085 26.5503 149.085 26.229Z" fill="white"/>
<path d="M170.488 4.25698H161.591C161.271 4.25698 161.079 4.44972 161.079 4.77095V4.96369C161.079 5.28491 161.271 5.47765 161.591 5.47765H165.399V26.229C165.399 26.5503 165.591 26.743 165.911 26.743H166.167C166.487 26.743 166.679 26.5503 166.679 26.229V5.47765H170.488C170.808 5.47765 171 5.28491 171 4.96369V4.77095C171 4.44972 170.808 4.25698 170.488 4.25698Z" fill="white"/>
<path d="M144.546 26.1648L139.522 4.7067C139.458 4.38547 139.266 4.25698 138.978 4.25698H138.53C138.242 4.25698 138.049 4.38547 137.985 4.7067L133.025 26.1648C132.961 26.5182 133.121 26.743 133.473 26.743H133.729C134.017 26.743 134.209 26.6145 134.273 26.2933L135.521 20.7682L138.754 6.60195L141.986 20.7682L143.234 26.2933C143.298 26.6145 143.49 26.743 143.778 26.743H144.098C144.45 26.743 144.61 26.5182 144.546 26.1648Z" fill="white"/>
<path d="M53.5352 26.1648L48.5106 4.7067C48.4466 4.38547 48.2546 4.25698 47.9665 4.25698H47.5185C47.2304 4.25698 47.0384 4.38547 46.9744 4.7067L42.0138 26.1648C41.9498 26.5182 42.1098 26.743 42.4619 26.743H42.7179C43.0059 26.743 43.198 26.6145 43.262 26.2933L44.5101 20.7682L47.7425 6.60195L50.9749 20.7682L52.2231 26.2933C52.2871 26.6145 52.4791 26.743 52.7671 26.743H53.0872C53.4392 26.743 53.5992 26.5182 53.5352 26.1648Z" fill="white"/>
<path d="M25.1513 1.49998C25.1513 1.37283 25.1606 1.23659 25.2348 1.13214C25.3692 0.93233 25.6704 0.927789 25.916 0.950495C27.4526 1.09696 28.9737 1.37195 30.4624 1.77246C30.5277 1.7813 30.5872 1.81369 30.6293 1.86328C30.6988 1.96319 30.6015 2.09488 30.5088 2.17663C28.6828 3.89321 26.8321 5.57952 24.9567 7.23555L25.1513 1.49998ZM19.6039 1.98135C19.6085 1.84057 19.6178 1.69526 19.7012 1.57718C19.7846 1.45911 19.9978 1.37737 20.1785 1.34104C21.3594 1.08388 22.5652 0.952931 23.7749 0.950495C23.9417 0.950495 24.1317 0.964118 24.2244 1.09581C24.3171 1.22751 24.294 1.31379 24.2893 1.42732L24.0391 7.35816C24.0298 7.61701 24.0159 7.88041 23.9047 8.11655C23.7934 8.35269 23.5988 8.5298 23.4041 8.70237L19.2516 12.458C19.3721 8.96727 19.4895 5.47507 19.6039 1.98135ZM11.4842 6.41813C11.4935 6.06391 11.5121 5.69608 11.6928 5.39181C11.8735 5.08755 12.0728 4.97402 12.3045 4.81054C14.2294 3.43859 16.38 2.40026 18.6631 1.74067C18.5951 5.25255 18.4792 8.7614 18.3155 12.2672C18.2969 12.6078 18.2784 12.953 18.144 13.2663C18.0096 13.5796 17.6852 13.8975 17.3932 14.1655L12.3416 18.743C12.1423 18.9292 11.9199 19.1199 11.6465 19.1608C11.373 19.2017 11.0486 19.02 11.0579 18.7521C11.2031 14.6377 11.3452 10.5264 11.4842 6.41813ZM2.66019 13.398L10.5759 6.24556C10.4925 10.1207 10.3612 13.9929 10.182 17.862C10.1727 18.0664 10.1449 18.3025 9.96877 18.4115L2.80386 14.1745C2.62312 14.0701 2.42383 13.9202 2.44237 13.7204C2.45628 13.5887 2.56287 13.4843 2.66019 13.398ZM1.45986 30.196C1.01495 30.2232 0.593214 29.8236 0.611752 29.3922C0.630289 28.9608 1.0752 28.5884 1.51548 28.6474C1.95575 28.7065 2.21528 29.0652 2.20138 29.4467C2.18748 29.8282 1.84916 30.1687 1.45986 30.196ZM2.49799 27.2079C2.21065 27.6166 1.61743 27.7891 1.14935 27.5984C0.95885 27.5217 0.793698 27.3949 0.672148 27.232C0.550598 27.0691 0.477384 26.8764 0.460599 26.6753C0.443813 26.4741 0.484109 26.2724 0.577033 26.0923C0.669956 25.9122 0.811889 25.7608 0.987145 25.6548C1.41815 25.3914 2.03454 25.4686 2.38676 25.8319C2.73898 26.1952 2.78996 26.7946 2.49799 27.2079V27.2079ZM5.19062 30.1142C5.08086 30.2438 4.94243 30.347 4.78584 30.4163C4.62925 30.4855 4.45862 30.5189 4.2869 30.5139C4.12237 30.5091 3.96095 30.4688 3.81418 30.3958C3.26731 30.1188 3.04949 29.3604 3.36927 28.8472C3.68905 28.3341 4.47227 28.1751 4.9728 28.5203C5.47332 28.8654 5.58455 29.651 5.19062 30.1142V30.1142ZM5.69114 26.9036C5.48723 27.3441 4.9589 27.6211 4.47227 27.5348C3.86516 27.4304 3.42488 26.7628 3.57782 26.177C3.73076 25.5912 4.45374 25.2188 5.03768 25.4186C5.62163 25.6184 5.94141 26.3496 5.69114 26.9036ZM6.61341 31.0588C8.25401 29.3241 8.23084 26.3269 6.56243 24.6194C4.89401 22.9119 1.83989 22.7529 0 24.2788C0.282703 21.1135 3.38317 18.4478 6.62267 18.5886C9.86218 18.7294 12.717 21.6494 12.7124 24.8283C12.7077 28.0071 9.85291 30.9226 6.61341 31.0588ZM17.5693 29.2105C17.5044 29.2696 17.4349 29.3286 17.3469 29.3422C17.1708 29.3649 17.041 29.1833 16.9576 29.0289L13.2361 21.9446C13.1944 21.8628 13.1527 21.7675 13.199 21.6903C13.2453 21.6131 13.3612 21.604 13.4539 21.6085C17.4488 21.7115 21.4422 21.8644 25.434 22.0672L17.5693 29.2105ZM30.5042 14.9466C29.63 17.0011 28.4235 18.9041 26.931 20.5822C26.7456 20.7866 26.5509 20.9955 26.2961 21.0999C26.0412 21.2044 25.7538 21.1953 25.4757 21.1862L13.1666 20.7321C12.9905 20.723 12.8004 20.7139 12.6568 20.6095C12.2582 20.3097 12.6243 19.6967 12.9905 19.3606L18.0837 14.6922C18.3386 14.4606 18.5982 14.2245 18.918 14.1064C19.2377 13.9884 19.6317 13.9884 19.9932 14.0065L30.1844 14.4107C30.3049 14.4152 30.4393 14.4243 30.5181 14.5197C30.5968 14.615 30.5598 14.8058 30.5042 14.9466ZM31.1762 13.0619C31.1298 13.2254 31.0696 13.398 30.9259 13.4888C30.7822 13.5796 30.6247 13.5706 30.4717 13.566L19.9144 13.121C23.7054 9.58488 27.535 6.08359 31.4032 2.61712C32.2697 6.05734 32.1914 9.66101 31.1762 13.0619V13.0619Z" fill="#35EF7F"/>
</svg>
