<svg width="129" height="156" viewBox="0 0 129 156" fill="none" xmlns="http://www.w3.org/2000/svg">
<path d="M109.469 110.108L64.125 155.717L18.7815 110.108C9.81357 101.088 3.70633 89.5948 1.23212 77.083C-1.2421 64.5713 0.0278363 51.6025 4.88133 39.8167C9.73482 28.0309 17.9539 17.9575 28.4992 10.8702C39.0445 3.78284 51.4423 0 64.125 0C76.8077 0 89.2056 3.78284 99.7509 10.8702C110.296 17.9575 118.515 28.0309 123.369 39.8167C128.222 51.6025 129.492 64.5713 127.018 77.083C124.544 89.5948 118.437 101.088 109.469 110.108ZM64.125 93.1661C71.6837 93.1661 78.9328 90.1459 84.2776 84.7698C89.6224 79.3938 92.625 72.1023 92.625 64.4994C92.625 56.8966 89.6224 49.6051 84.2776 44.229C78.9328 38.853 71.6837 35.8328 64.125 35.8328C56.5664 35.8328 49.3173 38.853 43.9725 44.229C38.6277 49.6051 35.625 56.8966 35.625 64.4994C35.625 72.1023 38.6277 79.3938 43.9725 84.7698C49.3173 90.1459 56.5664 93.1661 64.125 93.1661Z" fill="#35EF7F"/>
<circle cx="64.625" cy="64.6661" r="36" fill="#35EF7F"/>
<path d="M83.8045 33.3281C83.8045 33.046 83.8251 32.7437 83.9896 32.5119C84.2878 32.0686 84.9562 32.0585 85.5012 32.1089C88.9105 32.4339 92.2853 33.044 95.5886 33.9326C95.7333 33.9522 95.8653 34.0241 95.9587 34.1341C96.113 34.3558 95.897 34.648 95.6914 34.8294C91.64 38.638 87.5337 42.3795 83.3726 46.0539L83.8045 33.3281ZM71.4961 34.3961C71.5063 34.0838 71.5269 33.7613 71.712 33.4994C71.8971 33.2374 72.3701 33.056 72.7711 32.9754C75.3911 32.4048 78.0666 32.1143 80.7505 32.1089C81.1207 32.1089 81.5423 32.1391 81.748 32.4313C81.9536 32.7235 81.9022 32.915 81.8919 33.1669L81.3367 46.3259C81.3161 46.9002 81.2852 47.4846 81.0385 48.0086C80.7917 48.5325 80.3598 48.9255 79.9279 49.3084L70.7146 57.6411C70.9819 49.8961 71.2424 42.1478 71.4961 34.3961ZM53.4807 44.2402C53.5012 43.4543 53.5424 42.6382 53.9434 41.9631C54.3444 41.288 54.7866 41.0361 55.3007 40.6734C59.5714 37.6294 64.3432 35.3256 69.4087 33.8621C69.2578 41.6541 69.0008 49.4394 68.6375 57.2179C68.5963 57.9736 68.5552 58.7394 68.257 59.4346C67.9588 60.1298 67.239 60.8351 66.5912 61.4296L55.383 71.5861C54.9408 71.9992 54.4472 72.4224 53.8406 72.513C53.2339 72.6037 52.5141 72.2007 52.5347 71.6062C52.8568 62.4775 53.1722 53.3555 53.4807 44.2402ZM33.9023 59.7268L51.4652 43.8573C51.2802 52.4554 50.9888 61.0467 50.5912 69.6313C50.5706 70.0848 50.509 70.6087 50.1182 70.8505L34.2211 61.4498C33.82 61.218 33.3779 60.8855 33.419 60.4422C33.4499 60.15 33.6864 59.9182 33.9023 59.7268ZM31.2391 96.9973C30.2519 97.0578 29.3162 96.1711 29.3573 95.2139C29.3985 94.2567 30.3856 93.4305 31.3625 93.5615C32.3393 93.6925 32.9152 94.4885 32.8843 95.3348C32.8535 96.1812 32.1028 96.9369 31.2391 96.9973ZM33.5424 90.3674C32.9049 91.2743 31.5887 91.6571 30.5501 91.234C30.1274 91.0638 29.761 90.7824 29.4913 90.421C29.2216 90.0595 29.0592 89.632 29.022 89.1858C28.9847 88.7395 29.0741 88.2918 29.2803 87.8922C29.4865 87.4926 29.8014 87.1567 30.1902 86.9215C31.1465 86.3371 32.5141 86.5084 33.2956 87.3145C34.0771 88.1205 34.1902 89.4505 33.5424 90.3674V90.3674ZM39.5167 96.816C39.2732 97.1033 38.966 97.3325 38.6186 97.4861C38.2711 97.6398 37.8926 97.7138 37.5115 97.7027C37.1465 97.6921 36.7884 97.6027 36.4627 97.4407C35.2493 96.826 34.7661 95.1434 35.4756 94.0048C36.1851 92.8662 37.9229 92.5136 39.0334 93.2794C40.1439 94.0451 40.3907 95.7882 39.5167 96.816V96.816ZM40.6272 89.6924C40.1748 90.6697 39.0025 91.2843 37.9229 91.0929C36.5758 90.8611 35.599 89.38 35.9383 88.0802C36.2776 86.7804 37.8817 85.9542 39.1774 86.3976C40.473 86.8409 41.1825 88.4631 40.6272 89.6924ZM42.6735 98.9118C46.3136 95.0628 46.2622 88.4127 42.5604 84.6242C38.8586 80.8357 32.0823 80.483 28 83.8685C28.6272 76.8457 35.5064 70.9311 42.6941 71.2435C49.8817 71.5558 56.2159 78.0346 56.2056 85.0877C56.1953 92.1408 49.8611 98.6095 42.6735 98.9118ZM66.9819 94.8109C66.838 94.9419 66.6837 95.0729 66.4884 95.1031C66.0976 95.1535 65.8097 94.7504 65.6246 94.4078L57.3676 78.6895C57.275 78.5082 57.1825 78.2966 57.2853 78.1253C57.3881 77.954 57.6452 77.9338 57.8508 77.9439C66.7146 78.1723 75.5749 78.5115 84.4318 78.9616L66.9819 94.8109ZM95.6811 63.1627C93.7416 67.7212 91.0646 71.9435 87.7531 75.6668C87.3418 76.1202 86.9099 76.5837 86.3444 76.8154C85.7788 77.0472 85.1413 77.027 84.5243 77.0069L57.2133 75.9993C56.8226 75.9791 56.401 75.959 56.0822 75.7272C55.1979 75.0622 56.0102 73.702 56.8226 72.9564L68.1233 62.5984C68.6889 62.0845 69.2647 61.5606 69.9742 61.2986C70.6837 61.0366 71.5578 61.0366 72.3598 61.077L94.9716 61.9737C95.2389 61.9838 95.5371 62.0039 95.7119 62.2155C95.8868 62.4271 95.8045 62.8503 95.6811 63.1627ZM97.1721 58.9812C97.0693 59.3439 96.9356 59.7268 96.6168 59.9283C96.2981 60.1298 95.9484 60.1097 95.6091 60.0996L72.185 59.1122C80.5963 51.2664 89.0933 43.498 97.6759 35.8067C99.5985 43.4397 99.4247 51.4354 97.1721 58.9812V58.9812Z" fill="black"/>
</svg>
